<?xml version="1.0" encoding="UTF-8"?>
<svg version="1.1" xmlns="http://www.w3.org/2000/svg" width="736" height="736">
<path d="M0 0 C242.88 0 485.76 0 736 0 C736 242.88 736 485.76 736 736 C493.12 736 250.24 736 0 736 C0 493.12 0 250.24 0 0 Z " fill="#FEFEFE" transform="translate(0,0)"/>
<path d="M0 0 C1.13767822 0.4626123 1.13767822 0.4626123 2.29833984 0.93457031 C11.96534839 4.9304531 21.11664638 9.45269716 30 15 C30.88558594 15.51820313 31.77117187 16.03640625 32.68359375 16.5703125 C40.27743218 21.13322848 46.7752837 26.73583546 53.38232422 32.58935547 C54.96851489 33.97254438 56.58496841 35.30938358 58.21484375 36.640625 C60.47290886 38.55348801 62.3609192 40.36804556 64.25 42.625 C66.22310087 44.95369268 68.21137943 47.22207316 70.31640625 49.43359375 C77.23159513 56.71672695 82.71330771 64.48674006 88 73 C88.35835937 73.57089355 88.71671875 74.14178711 89.0859375 74.72998047 C99.16418686 90.95084704 105.39326356 108.55417501 110 127 C110.19397369 127.77352814 110.38794739 128.54705627 110.58779907 129.34402466 C114.62139348 146.18173671 114.62169252 163.0377447 114.52148438 180.23730469 C114.4983798 184.24739252 114.51207419 188.2564275 114.53577423 192.26647949 C114.55023275 195.38928178 114.54563154 198.51183372 114.53526306 201.63464355 C114.53261217 203.11454396 114.53580732 204.59446773 114.54518127 206.07434082 C114.55538424 208.13090698 114.5398123 210.18574948 114.51757812 212.2421875 C114.51439575 213.4060498 114.51121338 214.56991211 114.50793457 215.76904297 C113.88927581 219.70431334 112.45659864 221.90069909 110 225 C107.32555458 226.33722271 105.24750406 226.14929721 102.25268555 226.17700195 C101.0477092 226.18983719 99.84273285 226.20267242 98.60124207 226.21589661 C97.29294937 226.22328354 95.98465668 226.23067047 94.63671875 226.23828125 C93.97180735 226.24235678 93.30689594 226.2464323 92.62183571 226.25063133 C89.10181616 226.2714908 85.58183557 226.28579241 82.06176758 226.29516602 C78.42999143 226.30622428 74.79882905 226.3406166 71.16726971 226.38033772 C68.37137227 226.40651374 65.57562078 226.4148587 62.77961159 226.41844749 C60.79151812 226.42567295 58.80352446 226.45210878 56.81559753 226.47883606 C54.99394829 226.47444771 54.99394829 226.47444771 53.13549805 226.4699707 C51.53571358 226.47877007 51.53571358 226.47877007 49.90361023 226.48774719 C46.28279885 225.87952486 44.6196674 224.51939709 42 222 C40.6328673 219.26573459 40.86018588 217.07682299 40.84228516 214.01586914 C40.82689194 212.1260305 40.82689194 212.1260305 40.81118774 210.19801331 C40.80774982 209.52096407 40.8043119 208.84391483 40.80076981 208.14634895 C40.78892946 206.0111647 40.76945115 203.87617811 40.74765015 201.74107361 C40.68629743 195.66802882 40.6325635 189.59499299 40.59863281 183.52172852 C40.40962626 151.51036616 38.89053383 117.90000817 16 93 C15.32453125 92.24460937 14.6490625 91.48921875 13.953125 90.7109375 C-0.3011674 75.5722547 -19.12812888 66.95793148 -39 62 C-39.90492188 61.75378906 -40.80984375 61.50757813 -41.7421875 61.25390625 C-67.90895207 55.19291446 -96.88588833 62.27529448 -119.32421875 76.14453125 C-124.12770259 79.47541421 -128.57222607 83.19130692 -133 87 C-133.98613281 87.78503906 -134.97226562 88.57007813 -135.98828125 89.37890625 C-153.24774121 104.39978515 -165.97931124 130.30505345 -168 153 C-168.90393883 168.13178897 -168.66051432 182.51585255 -164 197 C-163.43925781 198.82337891 -163.43925781 198.82337891 -162.8671875 200.68359375 C-157.07350794 218.19892302 -146.91794543 232.98601037 -134 246 C-133.34 246.33 -132.68 246.66 -132 247 C-132 247.66 -132 248.32 -132 249 C-131.41605469 249.27714844 -130.83210938 249.55429687 -130.23046875 249.83984375 C-128.10394859 250.94593217 -126.2627805 252.17396358 -124.3125 253.5625 C-112.69475946 261.30766036 -101.10850945 266.80355285 -87.53515625 270.125 C-84 271 -84 271 -82 272 C-79.24234079 272.10148593 -76.50961191 272.1416463 -73.75152588 272.13803101 C-72.88833732 272.14085229 -72.02514877 272.14367357 -71.13580298 272.14658034 C-68.22626856 272.15495264 -65.31677206 272.15626684 -62.40722656 272.15771484 C-60.32802218 272.16238115 -58.24881882 272.16752441 -56.1696167 272.17311096 C-51.68321071 272.18440731 -47.19681142 272.19283408 -42.71039581 272.19923019 C-35.61792003 272.20989164 -28.52549226 272.23013161 -21.43304443 272.25234985 C-1.26170043 272.31433621 18.90964105 272.36829513 39.08105469 272.40136719 C50.21469051 272.41970178 61.34824624 272.44862381 72.48182321 272.4893719 C78.37630742 272.51046263 84.2706906 272.52590209 90.16521454 272.52817917 C95.71051268 272.53032377 101.25560053 272.54617417 106.80083466 272.57256889 C108.83657675 272.57977067 110.8723443 272.58185862 112.90809631 272.57846642 C115.68684422 272.5745757 118.46491919 272.58901359 121.24359131 272.60800171 C122.04963106 272.60247201 122.85567081 272.59694232 123.68613601 272.59124506 C128.51772738 272.64825375 131.80533928 273.35282526 136 276 C137.85339773 278.01617689 139.45217666 279.93455637 141.0625 282.125 C141.7575061 283.03946899 141.7575061 283.03946899 142.46655273 283.97241211 C143.46426387 285.28674129 144.45703496 286.60483236 145.4453125 287.92626953 C147.57571206 290.76791744 149.74060687 293.58257384 151.90332031 296.3996582 C153.55900013 298.5579377 155.20996216 300.71974084 156.859375 302.8828125 C159.25720501 306.02686122 161.65543339 309.1705742 164.06274414 312.30737305 C165.2787022 313.89341563 166.48904355 315.48375937 167.69921875 317.07421875 C169.21019663 318.99564903 170.77501203 320.87615552 172.39453125 322.70703125 C178.49548219 329.66275641 178.49548219 329.66275641 178.75 334.8125 C178.36462414 338.84467339 176.98082133 341.1945211 174 344 C171.36284904 345.31857548 169.4016736 345.11991704 166.44873047 345.11352539 C165.28767792 345.11344986 164.12662537 345.11337433 162.9303894 345.11329651 C161.67203278 345.10813522 160.41367615 345.10297394 159.1171875 345.09765625 C157.83264679 345.0962413 156.54810608 345.09482635 155.22463989 345.09336853 C151.80843158 345.08954911 148.39226574 345.07972373 144.97607422 345.06866455 C141.49056574 345.05843807 138.0050504 345.05386826 134.51953125 345.04882812 C127.67967005 345.03810096 120.83983706 345.02103142 114 345 C114.00999275 346.76859627 114.00999275 346.76859627 114.02018738 348.57292175 C114.08099049 359.68202448 114.12596886 370.79109347 114.15543652 381.90032482 C114.17109539 387.61176168 114.19233796 393.32306425 114.22631836 399.03442383 C114.25890352 404.54573703 114.27685134 410.05692104 114.28463173 415.56832314 C114.29017672 417.6714818 114.30100466 419.77463335 114.31719017 421.87773705 C114.33895298 424.82253705 114.34196737 427.76680249 114.34057617 430.71166992 C114.351362 431.5820137 114.36214783 432.45235748 114.3732605 433.34907532 C114.34893463 438.10464887 113.99111344 441.08468709 111 445 C110.608125 445.598125 110.21625 446.19625 109.8125 446.8125 C107.3760142 448.40881828 105.17270908 448.65446193 102.29296875 448.5390625 C97.48511555 447.40876652 93.85439256 443.94284279 90 441 C88.15519835 439.75682198 86.30053289 438.5281863 84.4375 437.3125 C78.71206909 433.51756695 73.1088721 429.56455026 67.51635742 425.5769043 C63.9690263 423.05776203 60.40450925 420.586342 56.75390625 418.21875 C56.07948486 417.78030762 55.40506348 417.34186523 54.71020508 416.89013672 C53.44861234 416.07589166 52.1818658 415.26954884 50.90893555 414.47314453 C46.90181594 411.88583498 43.13910407 409.33794486 41 405 C40.30412063 400.42598233 40.41873653 395.90624198 40.51171875 391.2890625 C40.52105518 389.9524366 40.52816738 388.61579348 40.53315735 387.27914429 C40.55216279 383.77703835 40.60120429 380.27598479 40.65667725 376.77429199 C40.70801141 373.19472487 40.73070135 369.61498611 40.75585938 366.03515625 C40.80933202 359.02300776 40.89456417 352.01155453 41 345 C40.08037271 345.00414807 40.08037271 345.00414807 39.14216709 345.00837994 C24.14824365 345.0749522 9.1543663 345.12443129 -5.83966732 345.15543652 C-13.0910012 345.17083317 -20.34223577 345.19178283 -27.59350586 345.22631836 C-33.92182969 345.25644353 -40.25008151 345.27562715 -46.57847506 345.28226548 C-49.92201345 345.28613916 -53.26518452 345.29672067 -56.60868645 345.31719017 C-70.74391007 345.40021908 -84.19306238 345.25617552 -98 342 C-99.19123474 341.72940765 -100.38246948 341.45881531 -101.60980225 341.18002319 C-115.71593902 337.89548634 -129.12010344 333.64610047 -142 327 C-142.68739258 326.64679688 -143.37478516 326.29359375 -144.08300781 325.9296875 C-160.49704674 317.36450154 -177.19574768 306.39633932 -189 292 C-190.66135039 290.32803396 -192.32822872 288.66154638 -194 287 C-201.18601543 279.20474629 -207.71741309 271.2192918 -213 262 C-213.4110498 261.30165039 -213.82209961 260.60330078 -214.24560547 259.88378906 C-220.84099555 248.64095514 -226.23343415 237.43684804 -230.31835938 225.05273438 C-230.90690048 223.28036559 -231.53570288 221.52146006 -232.171875 219.765625 C-238.21616006 202.19070382 -239.38689357 184.11102961 -239.4375 165.6875 C-239.44358276 164.85326508 -239.44966553 164.01903015 -239.45593262 163.15951538 C-239.53015402 147.59540195 -238.26451666 131.92550684 -233.125 117.125 C-232.86380371 116.34020264 -232.60260742 115.55540527 -232.33349609 114.74682617 C-231.57421136 112.4909233 -230.79180428 110.24466095 -230 108 C-229.5978125 106.83855469 -229.195625 105.67710937 -228.78125 104.48046875 C-219.94627522 80.27383176 -205.68420909 59.52510088 -188 41 C-187.18789062 40.13503906 -186.37578125 39.27007812 -185.5390625 38.37890625 C-163.35018493 15.36422903 -132.93437081 0.02056642 -102 -7 C-100.26169922 -7.433125 -100.26169922 -7.433125 -98.48828125 -7.875 C-97.39902344 -8.143125 -96.30976563 -8.41125 -95.1875 -8.6875 C-94.25292969 -8.91824219 -93.31835938 -9.14898437 -92.35546875 -9.38671875 C-62.30943526 -14.87825223 -28.20229098 -11.5065872 0 0 Z " fill="#1C75EA" transform="translate(428,182)"/>
<path d="M0 0 C0.99 0.495 0.99 0.495 2 1 C3.01467178 5.33720173 3.14093806 9.5711558 3.17700195 14.01171875 C3.18357315 14.68570709 3.19014435 15.35969543 3.19691467 16.05410767 C3.21648751 18.26523985 3.22827001 20.47630487 3.23828125 22.6875 C3.24235678 23.44678802 3.2464323 24.20607605 3.25063133 24.9883728 C3.27141708 29.00233684 3.28575472 33.01626739 3.29516602 37.03027344 C3.30625525 41.16625174 3.34070489 45.30169576 3.38033772 49.43748474 C3.40650871 52.62887555 3.41485791 55.82013852 3.41844749 59.0116272 C3.42330695 60.53622067 3.43490275 62.06080867 3.45348549 63.58529663 C3.47790429 65.72005613 3.47690879 67.85342409 3.4699707 69.98828125 C3.47583694 71.20040283 3.48170319 72.41252441 3.48774719 73.66137695 C2.90105581 77.67727167 1.51383074 79.85203281 -1 83 C-3.67444542 84.33722271 -5.75249594 84.14929721 -8.74731445 84.17700195 C-9.9522908 84.18983719 -11.15726715 84.20267242 -12.39875793 84.21589661 C-14.36119698 84.22697701 -14.36119698 84.22697701 -16.36328125 84.23828125 C-17.36064836 84.24439454 -17.36064836 84.24439454 -18.37816429 84.25063133 C-21.89818384 84.2714908 -25.41816443 84.28579241 -28.93823242 84.29516602 C-32.57000857 84.30622428 -36.20117095 84.3406166 -39.83273029 84.38033772 C-42.62862773 84.40651374 -45.42437922 84.4148587 -48.22038841 84.41844749 C-50.20848188 84.42567295 -52.19647554 84.45210878 -54.18440247 84.47883606 C-55.3988353 84.47591049 -56.61326813 84.47298492 -57.86450195 84.4699707 C-59.46428642 84.47877007 -59.46428642 84.47877007 -61.09638977 84.48774719 C-64.71720115 83.87952486 -66.3803326 82.51939709 -69 80 C-70.40607756 77.18784488 -70.11950486 74.8595578 -70.11352539 71.71435547 C-70.11367142 71.07032776 -70.11381744 70.42630005 -70.1139679 69.76275635 C-70.1132704 67.63086598 -70.10548566 65.49906263 -70.09765625 63.3671875 C-70.09579149 61.89031014 -70.09436786 60.41343216 -70.09336853 58.93655396 C-70.08954792 55.04687801 -70.07972152 51.15723933 -70.06866455 47.26757812 C-70.05844064 43.29948429 -70.05386881 39.33138445 -70.04882812 35.36328125 C-70.03809885 27.57550384 -70.02102789 19.78775714 -70 12 C-68.33333333 12 -66.66666667 12 -65 12 C-65.00444122 12.81574997 -65.00888245 13.63149994 -65.01345825 14.4719696 C-65.05356469 22.16694871 -65.0839995 29.86187698 -65.10362434 37.5569334 C-65.1140529 41.51285455 -65.1281951 45.46868918 -65.15087891 49.42456055 C-65.17264046 53.24358277 -65.18457561 57.06252188 -65.18975449 60.88160133 C-65.1934443 62.33722046 -65.20064961 63.79283515 -65.21146011 65.24841881 C-65.22601926 67.29030494 -65.22797612 69.33184945 -65.22705078 71.3737793 C-65.231492 72.53515915 -65.23593323 73.696539 -65.24050903 74.89311218 C-65.00005603 77.99927626 -64.32371596 80.19916651 -63 83 C-55.65423371 82.93870241 -48.30881323 82.86153461 -40.96342945 82.76428509 C-37.55238536 82.71961929 -34.14145964 82.68035533 -30.73022461 82.65356445 C-26.80556851 82.62250194 -22.88141399 82.56771382 -18.95703125 82.51171875 C-17.73603226 82.50532883 -16.51503326 82.4989389 -15.2570343 82.49235535 C-14.1162291 82.47256119 -12.97542389 82.45276703 -11.80004883 82.43237305 C-10.79855301 82.42126999 -9.79705719 82.41016693 -8.76521301 82.39872742 C-5.51119308 81.92951692 -3.61516157 80.97382765 -1 79 C0.17108064 75.48675808 0.13229358 72.33634942 0.11352539 68.68286133 C0.11367142 67.94115189 0.11381744 67.19944244 0.1139679 66.43525696 C0.11327134 63.98415195 0.10549097 61.53312298 0.09765625 59.08203125 C0.09579116 57.38238059 0.09436768 55.68272939 0.09336853 53.983078 C0.08955055 49.50980139 0.07972638 45.03655724 0.06866455 40.56329346 C0.05843499 35.99858031 0.0538676 31.43386193 0.04882812 26.86914062 C0.03810349 17.91274615 0.02103567 8.95637578 0 0 Z " fill="#2473DC" transform="translate(539,324)"/>
<path d="M0 0 C0.66837891 0.13083984 1.33675781 0.26167969 2.02539062 0.39648438 C7.18334277 1.45465692 7.18334277 1.45465692 9.25483894 2.72677708 C12.76989565 4.19016163 16.30397732 3.9642239 20.05148315 3.94578552 C20.91638056 3.94946123 21.78127796 3.95313693 22.67238438 3.95692402 C25.57575734 3.96691855 28.47893933 3.96275031 31.38232422 3.95874023 C33.46182459 3.96312645 35.54132319 3.96842822 37.62081909 3.97457886 C42.1017451 3.98608814 46.58262375 3.99153896 51.0635643 3.99246025 C58.14781763 3.99439865 65.23197285 4.01243916 72.31619263 4.03321838 C89.91360789 4.08243899 107.51104985 4.1132987 125.10852051 4.13452148 C138.78094834 4.15103634 152.45329228 4.17382955 166.12566388 4.21754223 C173.16893834 4.23934232 180.21205353 4.2473742 187.25535941 4.24514949 C191.63692725 4.24681509 196.01839094 4.26085675 200.39992142 4.27836227 C202.43244419 4.28396625 204.46498851 4.28444292 206.49751282 4.27942467 C209.27176377 4.27329304 212.04535596 4.28549749 214.81954956 4.30223083 C216.02656283 4.29291311 216.02656283 4.29291311 217.2579602 4.28340715 C222.08871292 4.33651695 225.36232549 5.0523348 229.5625 7.6875 C231.8984375 10.16796875 231.8984375 10.16796875 233.9375 12.875 C234.62585938 13.77605469 235.31421875 14.67710937 236.0234375 15.60546875 C236.53132812 16.29253906 237.03921875 16.97960937 237.5625 17.6875 C235.5825 18.1825 235.5825 18.1825 233.5625 18.6875 C232.65104167 16.99479167 231.73958333 15.30208333 230.828125 13.609375 C229.20110859 11.13872046 227.92380177 9.52744002 225.5625 7.6875 C222.60219878 7.29777033 220.01503988 7.15292018 217.05574036 7.18870544 C215.75544397 7.18062861 215.75544397 7.18062861 214.42887896 7.17238861 C211.51846214 7.1590936 208.6088851 7.17427747 205.69848633 7.18920898 C203.61399955 7.18538676 201.5295154 7.17976854 199.44503784 7.17248535 C194.95259394 7.16051907 190.46038368 7.16103647 185.96793556 7.17107964 C178.86181329 7.18662052 171.75593165 7.17297508 164.64982605 7.15504456 C150.84155299 7.12419378 137.03335304 7.12272399 123.22505188 7.12469482 C105.66688004 7.12608658 88.10876479 7.11571892 70.55063456 7.0761171 C63.48976883 7.06119157 56.42911562 7.06144825 49.36824667 7.07359493 C44.96906742 7.07831226 40.56996915 7.07077574 36.17080307 7.06005096 C34.13469445 7.05764859 32.09857217 7.06036683 30.06247902 7.06865883 C27.27616574 7.07932479 24.49047173 7.07149428 21.70417786 7.05931091 C20.90434992 7.06688697 20.10452199 7.07446302 19.28045684 7.08226866 C14.30357476 7.03633994 10.23069102 6.15051665 5.56997031 4.39514691 C2.62125366 3.35570428 -0.34319116 3.00084176 -3.4375 2.625 C-6.8125 2.21484375 -6.8125 2.21484375 -9.4375 1.6875 C-9.7675 1.0275 -10.0975 0.3675 -10.4375 -0.3125 C-6.63977743 -1.57840752 -3.79877686 -0.8049182 0 0 Z " fill="#5185D6" transform="translate(334.4375,450.3125)"/>
<path d="M0 0 C39.6 0 79.2 0 120 0 C120.1875 29.625 120.1875 29.625 120.20776367 38.95166016 C120.23421311 41.39748283 120.26249101 43.84328671 120.29296875 46.2890625 C120.28898071 47.55387451 120.28499268 48.81868652 120.28088379 50.12182617 C120.21571876 57.4196582 120.21571876 57.4196582 123.3684082 63.73974609 C125.81243822 65.83890463 128.13677639 67.527485 131 69 C130.01 69.495 130.01 69.495 129 70 C123.91214974 67.9648599 119.50735844 65.01471689 117 60 C116.93768977 58.15061204 116.94223084 56.29881681 116.97827148 54.44873047 C116.99836777 53.28767792 117.01846405 52.12662537 117.03916931 50.9303894 C117.06620438 49.67203278 117.09323944 48.41367615 117.12109375 47.1171875 C117.15651024 45.19037643 117.15651024 45.19037643 117.19264221 43.22463989 C117.25549495 39.80835149 117.32455811 36.39221559 117.39489746 32.97607422 C117.46557024 29.49063059 117.53039351 26.00507877 117.59570312 22.51953125 C117.72473073 15.6795699 117.86031688 8.83975181 118 2 C116.68392258 2.00222061 115.36784515 2.00444122 114.0118866 2.00672913 C101.58017125 2.02704285 89.14845928 2.04201173 76.71673107 2.05181217 C70.32620232 2.05702012 63.93568702 2.06407971 57.54516602 2.07543945 C51.37248414 2.08634271 45.19981517 2.09229256 39.0271244 2.09487724 C36.67774566 2.09671812 34.32836759 2.1003128 31.97899437 2.10573006 C28.6763293 2.11303929 25.37371684 2.1139868 22.07104492 2.11352539 C20.62957344 2.1189183 20.62957344 2.1189183 19.15898132 2.12442017 C12.72438426 2.11475765 6.39773921 1.68118413 0 1 C0 0.67 0 0.34 0 0 Z " fill="#D1EEFE" transform="translate(349,527)"/>
<path d="M0 0 C2.97 0 5.94 0 9 0 C9 0.66 9 1.32 9 2 C9.515625 1.835 10.03125 1.67 10.5625 1.5 C14.37622121 0.71769821 18.36263817 0.14072929 21.89921188 1.99668694 C24.46220915 3.22074596 26.27834076 3.24634086 29.11260986 3.24050903 C30.66064804 3.24463303 30.66064804 3.24463303 32.23995972 3.24884033 C33.92957321 3.2380545 33.92957321 3.2380545 35.65332031 3.22705078 C36.84384003 3.22734283 38.03435974 3.22763489 39.26095581 3.22793579 C42.5210143 3.2267817 45.7809008 3.2167554 49.04092503 3.20278788 C52.4495373 3.19028019 55.85815299 3.18910999 59.26678467 3.18673706 C65.71947326 3.1805224 72.17209403 3.16411179 78.62475276 3.14403808 C85.97173366 3.12167864 93.31871782 3.11068554 100.66572428 3.10064721 C115.7771873 3.07974554 130.88858686 3.04456984 146 3 C146 3.66 146 4.32 146 5 C146.66 5 147.32 5 148 5 C147.99333817 5.74502274 147.98667633 6.49004547 147.97981262 7.25764465 C147.91971967 14.27628086 147.87403498 21.29482807 147.84456348 28.31364918 C147.8289025 31.92218303 147.80765685 35.53050444 147.77368164 39.13891602 C147.74110283 42.62078122 147.72315025 46.10244201 147.71536827 49.58444786 C147.70712144 51.56042097 147.68369962 53.53631175 147.66011047 55.51216125 C147.65988388 56.71317978 147.65965729 57.9141983 147.65942383 59.15161133 C147.65276199 60.21084305 147.64610016 61.27007477 147.63923645 62.36140442 C148.04489049 65.32832545 148.66362054 66.20751967 151 68 C150.67 68.99 150.34 69.98 150 71 C146.50969795 67.24651797 145.50284496 65.03716154 145.54589844 59.92456055 C145.54620056 58.72369308 145.54650269 57.52282562 145.54681396 56.28556824 C145.56745911 54.99894791 145.58810425 53.71232758 145.609375 52.38671875 C145.61684173 51.04865873 145.62253262 49.71058772 145.62652588 48.37251282 C145.64174869 44.86234992 145.68099991 41.35285626 145.7253418 37.84295654 C145.76636793 34.25672457 145.78455245 30.67038373 145.8046875 27.08398438 C145.84749867 20.05571585 145.91570832 13.02789012 146 6 C145.38691514 6.00276538 144.77383028 6.00553076 144.14216709 6.00837994 C129.14824365 6.0749522 114.1543663 6.12443129 99.16033268 6.15543652 C91.9089988 6.17083317 84.65776423 6.19178283 77.40649414 6.22631836 C71.07817031 6.25644353 64.74991849 6.27562715 58.42152494 6.28226548 C55.07798655 6.28613916 51.73481548 6.29672067 48.39131355 6.31719017 C31.5737548 6.41597485 16.2036783 5.77584229 0 1 C0 0.67 0 0.34 0 0 Z " fill="#2E74D0" transform="translate(323,521)"/>
<path d="M0 0 C2.16874252 0.50603992 3.99967627 0.99983813 6 2 C8.77129196 2.0958683 11.51736147 2.13011088 14.28884888 2.12025452 C15.15627083 2.12110894 16.02369278 2.12196337 16.91740024 2.12284368 C19.84095021 2.12449845 22.76444354 2.11897714 25.68798828 2.11352539 C27.77692666 2.11324349 29.86586514 2.1134013 31.95480347 2.1139679 C37.64046274 2.11425577 43.32610108 2.10836069 49.01175547 2.10139394 C54.94817404 2.09515869 60.88459306 2.09455647 66.8210144 2.09336853 C78.06906366 2.09025572 89.31710324 2.08204301 100.56514823 2.07201904 C113.3678518 2.06085635 126.17055581 2.05534706 138.97326303 2.05032361 C165.31551406 2.03986036 191.65775649 2.02226188 218 2 C218 2.66 218 3.32 218 4 C218.99 4 219.98 4 221 4 C221 4.66 221 5.32 221 6 C220.02926466 5.75697852 220.02926466 5.75697852 219.0389185 5.50904751 C215.14434013 4.8566689 211.31348142 4.85335786 207.37730408 4.85523987 C206.07655964 4.8499496 206.07655964 4.8499496 204.74953753 4.84455246 C201.84465696 4.83388021 198.93980921 4.83018709 196.03491211 4.82641602 C193.95201988 4.82010978 191.86912899 4.8133439 189.78623962 4.80615234 C185.30152098 4.79148993 180.81680751 4.77976232 176.33207512 4.77020454 C169.24410939 4.75475492 162.15618833 4.73080741 155.06825256 4.70530701 C134.91328754 4.63409165 114.75829732 4.57425277 94.60327148 4.52319336 C83.47147999 4.49491778 72.33973332 4.45955528 61.2079888 4.41653961 C54.15834295 4.38972837 47.10874779 4.37184744 40.05906093 4.36050236 C35.67869792 4.35139391 31.29839673 4.33404097 26.91806984 4.31432343 C24.88309574 4.30683356 22.84810581 4.302766 20.81311798 4.30232811 C18.04052603 4.30124949 15.26825038 4.28803698 12.49571228 4.27174377 C11.28098367 4.27566906 11.28098367 4.27566906 10.04171509 4.27967364 C6.22492838 4.24450849 3.23351015 4.16375313 0 2 C0 1.34 0 0.68 0 0 Z " fill="#EEFEFF" transform="translate(342,451)"/>
<path d="M0 0 C1.34523031 0.28150363 2.67720392 0.62703964 4 1 C5.95516298 1.08641198 7.91305004 1.11770716 9.87011719 1.11352539 C11.64150055 1.11341209 11.64150055 1.11341209 13.44866943 1.11329651 C14.71857727 1.10813522 15.98848511 1.10297394 17.296875 1.09765625 C18.60078186 1.0962413 19.90468872 1.09482635 21.24810791 1.09336853 C24.70703055 1.08955867 28.16591091 1.07974151 31.62481689 1.06866455 C35.15742419 1.05841746 38.69003836 1.05386385 42.22265625 1.04882812 C49.14845482 1.03811782 56.07422538 1.02105984 63 1 C61.22634159 3.28869739 60.35247963 3.95037913 57.43733215 4.36076355 C56.41363022 4.35410172 55.38992828 4.34743988 54.33520508 4.34057617 C53.15800903 4.34021362 51.98081299 4.33985107 50.76794434 4.33947754 C49.53096802 4.32412964 48.2939917 4.30878174 47.01953125 4.29296875 C45.31379944 4.28843689 45.31379944 4.28843689 43.5736084 4.28381348 C39.31981347 4.2681001 35.06614776 4.22621625 30.8125 4.1875 C21.304375 4.125625 11.79625 4.06375 2 4 C2 35.35 2 66.7 2 99 C1.67 99 1.34 99 1 99 C1 67.98 1 36.96 1 5 C0.34 5 -0.32 5 -1 5 C-1.33 4.01 -1.66 3.02 -2 2 C-1.34 1.34 -0.68 0.68 0 0 Z " fill="#337BD9" transform="translate(540,523)"/>
<path d="M0 0 C6.76530756 10.14796133 5.26964446 26.35320661 5.3359375 38.08203125 C5.34030067 38.79625118 5.34466385 39.51047112 5.34915924 40.24633408 C5.38457905 46.96186704 5.38270164 53.67725084 5.36035156 60.39282227 C5.34942039 64.10433181 5.36261951 67.81514358 5.39024734 71.52655602 C5.39565706 72.92550923 5.39170324 74.32453365 5.37784958 75.72342873 C4.98877096 84.37044228 4.98877096 84.37044228 8.53759766 91.8972168 C9.35019043 92.59113525 10.1627832 93.28505371 11 94 C9.02 94.495 9.02 94.495 7 95 C3.16064886 90.9836349 2.49843109 88.4445444 2.48583984 82.9375 C2.47871475 82.24564102 2.47158966 81.55378204 2.46424866 80.84095764 C2.44500159 78.56034584 2.45324616 76.28066594 2.4609375 74 C2.45101994 72.40159771 2.43907467 70.80320684 2.42520142 69.20483398 C2.39284107 64.99464074 2.38245091 60.78470719 2.37835693 56.57440186 C2.36960871 49.86547117 2.33359266 43.15675452 2.2861824 36.44799805 C2.27376314 34.12345075 2.27434198 31.79918254 2.27645874 29.47460938 C2.25452709 21.73302224 1.81887213 14.27602971 0.42788696 6.63452148 C0 4 0 4 0 0 Z " fill="#BCDEFD" transform="translate(464,314)"/>
<path d="M0 0 C18.48 0 36.96 0 56 0 C56 0.33 56 0.66 56 1 C37.85 1 19.7 1 1 1 C1.33 33.01 1.66 65.02 2 98 C0.02 98.495 0.02 98.495 -2 99 C-1.75739488 98.13645967 -1.75739488 98.13645967 -1.50988865 97.25547409 C-1.01356747 95.06001523 -0.86257265 93.15784581 -0.84178162 90.91241455 C-0.8319928 90.10757126 -0.82220398 89.30272797 -0.81211853 88.47349548 C-0.80636307 87.59955643 -0.8006076 86.72561737 -0.79467773 85.82519531 C-0.78477814 84.898022 -0.77487854 83.97084869 -0.76467896 83.01557922 C-0.7331095 79.9531204 -0.70832446 76.89064606 -0.68359375 73.828125 C-0.6630203 71.70391437 -0.64202372 69.5797078 -0.62062073 67.45550537 C-0.56544051 61.86602059 -0.51601333 56.2764991 -0.46777344 50.68695068 C-0.40869411 43.97965991 -0.34248839 37.27243617 -0.27747345 30.56520081 C-0.17951489 20.3768415 -0.09062389 10.18843909 0 0 Z " fill="#CFEEFF" transform="translate(542,527)"/>
<path d="M0 0 C0.99 0.495 0.99 0.495 2 1 C3.03303695 5.37740319 3.12161659 9.62441041 3.11352539 14.10693359 C3.11367142 14.79055969 3.11381744 15.47418579 3.1139679 16.17852783 C3.11327608 18.41853099 3.10551822 20.65844903 3.09765625 22.8984375 C3.09578947 24.45927892 3.09436679 26.02012092 3.09336853 27.58096313 C3.08956383 31.6744348 3.07975116 35.76787057 3.06866455 39.86132812 C3.05840628 44.0442659 3.05386147 48.22720951 3.04882812 52.41015625 C3.03812694 60.60678724 3.02107528 68.80338915 3 77 C2.34 76.67 1.68 76.34 1 76 C0.67 50.92 0.34 25.84 0 0 Z " fill="#3D84E1" transform="translate(539,324)"/>
<path d="M0 0 C0.33 0 0.66 0 1 0 C1 3.96 1 7.92 1 12 C0.01 12.495 0.01 12.495 -1 13 C-1.89873955 16.4058648 -2.20016367 19.94476366 -2.625 23.4375 C-2.82065552 25.04069092 -2.82065552 25.04069092 -3.02026367 26.67626953 C-4.90302693 43.57324076 -4.75653151 60.5493028 -2.4375 77.390625 C-2.04345268 80.64151536 -1.91877356 83.73063581 -2 87 C-2.33 87 -2.66 87 -3 87 C-5.35920246 75.12606415 -6.48219144 63.70116932 -6.39111328 51.59594727 C-6.37502652 49.06667013 -6.3910788 46.53899515 -6.41015625 44.00976562 C-6.42873687 29.16331327 -5.09509541 14.05668166 0 0 Z " fill="#3576CF" transform="translate(195,299)"/>
<path d="M0 0 C3.84411747 1.56612193 6.15950209 4.02094121 9 7 C12.48327032 10.80207393 12.48327032 10.80207393 17 13 C16.67 11.68 16.34 10.36 16 9 C17.65 9 19.3 9 21 9 C21 10.32 21 11.64 21 13 C22.32 13 23.64 13 25 13 C24.67 14.32 24.34 15.64 24 17 C23.01 16.67 22.02 16.34 21 16 C24.67557852 20.00972202 28.18966896 22.45335415 33 25 C33 25.66 33 26.32 33 27 C26.44433946 24.72339789 21.40055968 20.23255855 16 16 C14.48986328 14.82050781 14.48986328 14.82050781 12.94921875 13.6171875 C8.09714108 9.74340425 3.65508535 6.04149703 0 1 C0 0.67 0 0.34 0 0 Z " fill="#2A79DD" transform="translate(239,473)"/>
<path d="M0 0 C7.7513968 7.28161518 13.47138635 15.97517334 19 25 C19.68191406 26.06476563 20.36382813 27.12953125 21.06640625 28.2265625 C21.72511719 29.28617187 22.38382813 30.34578125 23.0625 31.4375 C23.67222656 32.40558594 24.28195312 33.37367188 24.91015625 34.37109375 C26 37 26 37 25.18359375 39.34765625 C24.79300781 39.89292969 24.40242187 40.43820312 24 41 C23.5875 40.01 23.175 39.02 22.75 38 C21.25064144 34.47758348 19.54734927 31.08839243 17.76953125 27.69921875 C17 26 17 26 17 24 C16.01 23.67 15.02 23.34 14 23 C14 21.68 14 20.36 14 19 C13.34 19 12.68 19 12 19 C11.7525 18.195625 11.505 17.39125 11.25 16.5625 C10.27761141 13.828919 10.27761141 13.828919 7.875 13.1875 C7.25625 13.125625 6.6375 13.06375 6 13 C5.67 14.32 5.34 15.64 5 17 C4.01 16.34 3.02 15.68 2 15 C2 14.01 2 13.02 2 12 C3.32 12 4.64 12 6 12 C5.02510804 8.99408312 4.46253026 7.34009578 1.875 5.4375 C1.25625 4.963125 0.6375 4.48875 0 4 C0 2.68 0 1.36 0 0 Z " fill="#3978D1" transform="translate(498,232)"/>
<path d="M0 0 C2.62367874 2.99848999 3.77399291 6.07302931 5.12817383 9.78027344 C6.56459453 13.43749466 8.37974245 16.89024493 10.1875 20.375 C14 27.73292469 14 27.73292469 14 30 C14.66 30 15.32 30 16 30 C19 35.625 19 35.625 19 39 C20.485 39.495 20.485 39.495 22 40 C23.2109375 41.671875 23.2109375 41.671875 24.375 43.75 C26.55204629 47.42914206 28.85288607 50.12263869 32 53 C31.67 53.99 31.34 54.98 31 56 C19.0762915 43.45687808 0 18.26191274 0 0 Z " fill="#3878D1" transform="translate(199,408)"/>
<path d="M0 0 C0.33 0 0.66 0 1 0 C1.0093457 0.69859131 1.01869141 1.39718262 1.02832031 2.11694336 C1.26598786 16.30359887 2.05714252 29.34134655 6 43 C6.68509944 45.66240005 7.34293301 48.33048121 8 51 C7.34 51 6.68 51 6 51 C5.67 49.35 5.34 47.7 5 46 C4.01 45.67 3.02 45.34 2 45 C1.51963783 41.66683783 1.04093096 38.33343987 0.5625 35 C0.42779297 34.06542969 0.29308594 33.13085938 0.15429688 32.16796875 C-0.11189722 30.31110259 -0.37420836 28.4536755 -0.63256836 26.59570312 C-0.85792836 25.00365828 -1.09549169 23.41321048 -1.35375977 21.82617188 C-2.11535452 16.83492944 -1.7990764 12.44100938 -1.0625 7.5 C-0.96259766 6.77296875 -0.86269531 6.0459375 -0.75976562 5.296875 C-0.51565275 3.52996279 -0.25914703 1.76476986 0 0 Z " fill="#347BD9" transform="translate(258,336)"/>
<path d="M0 0 C1 2 1 2 0.1875 4.875 C-0.75524181 7.3558995 -1.7442206 9.66783825 -3 12 C-3.99 12 -4.98 12 -6 12 C-9.5312247 14.0899085 -11.70873704 15.56310556 -14 19 C-14.66 19 -15.32 19 -16 19 C-16.4021875 20.3303125 -16.4021875 20.3303125 -16.8125 21.6875 C-17.93083742 24.80707281 -19.077202 27.3080828 -21 30 C-21.99 30.33 -22.98 30.66 -24 31 C-19.47687628 18.92431157 -10.03649101 7.90106739 0 0 Z " fill="#F6FCF8" transform="translate(296,267)"/>
<path d="M0 0 C0.68598267 -0.00090637 1.37196533 -0.00181274 2.07873535 -0.00274658 C14.55644878 -0.00088301 14.55644878 -0.00088301 20.8125 1.1875 C20.8125 1.5175 20.8125 1.8475 20.8125 2.1875 C5.6325 2.1875 -9.5475 2.1875 -25.1875 2.1875 C-25.1875 2.8475 -25.1875 3.5075 -25.1875 4.1875 C-28.8175 4.1875 -32.4475 4.1875 -36.1875 4.1875 C-26.81414602 -2.06140265 -10.97830521 -0.0009578 0 0 Z " fill="#3178D4" transform="translate(366.1875,170.8125)"/>
<path d="M0 0 C0.66 0.33 1.32 0.66 2 1 C1.54109375 1.969375 1.0821875 2.93875 0.609375 3.9375 C-3.78284946 13.45179281 -6.80763279 22.75987491 -9 33 C-9.33 33 -9.66 33 -10 33 C-10 27.72 -10 22.44 -10 17 C-9.34 17 -8.68 17 -8 17 C-8.2784375 15.6078125 -8.2784375 15.6078125 -8.5625 14.1875 C-9 11 -9 11 -8 8 C-6.35 7.67 -4.7 7.34 -3 7 C-3.0928125 5.824375 -3.0928125 5.824375 -3.1875 4.625 C-3.125625 3.75875 -3.06375 2.8925 -3 2 C-2.01 1.34 -1.02 0.68 0 0 Z " fill="#2876E4" transform="translate(270,297)"/>
<path d="M0 0 C13.92128293 0.44907364 27.40462653 6.41852077 40 12 C40 12.33 40 12.66 40 13 C38.02 13 36.04 13 34 13 C34 13.66 34 14.32 34 15 C32.68 14.34 31.36 13.68 30 13 C30.33 12.34 30.66 11.68 31 11 C27.73454239 9.11608215 24.71888239 8.50712033 21 8 C21 7.34 21 6.68 21 6 C14.07 5.505 14.07 5.505 7 5 C7 4.01 7 3.02 7 2 C5.02 2 3.04 2 1 2 C0.67 1.34 0.34 0.68 0 0 Z " fill="#3177D6" transform="translate(400,175)"/>
<path d="M0 0 C1.77032593 0.00302124 1.77032593 0.00302124 3.57641602 0.00610352 C12.63956807 0.10977818 21.03285962 1.06220705 29.8125 3.3125 C30.60785156 3.50972656 31.40320313 3.70695313 32.22265625 3.91015625 C32.74730469 4.04292969 33.27195312 4.17570313 33.8125 4.3125 C33.8125 3.6525 33.8125 2.9925 33.8125 2.3125 C34.4725 2.3125 35.1325 2.3125 35.8125 2.3125 C35.8125 2.9725 35.8125 3.6325 35.8125 4.3125 C36.8025 4.6425 37.7925 4.9725 38.8125 5.3125 C32.74270476 6.39202734 28.56352453 6.02819755 22.6875 4.375 C7.31829731 0.53148303 -8.69331219 1.60946412 -24.1875 4.3125 C-24.1875 3.6525 -24.1875 2.9925 -24.1875 2.3125 C-16.07399319 0.53113813 -8.29586679 -0.03838219 0 0 Z " fill="#2D75CD" transform="translate(365.1875,239.6875)"/>
<path d="M0 0 C0.66837891 0.13083984 1.33675781 0.26167969 2.02539062 0.39648438 C5.51801092 1.11300806 8.40079242 2.09690789 11.5625 3.6875 C16.31720913 4.71609753 21.09332749 4.98282593 25.9375 5.25 C26.67355469 5.29318359 27.40960938 5.33636719 28.16796875 5.38085938 C29.96598068 5.48593799 31.76421958 5.58712093 33.5625 5.6875 C33.5625 6.0175 33.5625 6.3475 33.5625 6.6875 C30.25017302 6.77584684 26.93815565 6.82833584 23.625 6.875 C22.23571289 6.91270508 22.23571289 6.91270508 20.81835938 6.95117188 C15.24803264 7.00980689 10.82865563 6.38199232 5.61889648 4.41577148 C2.65199635 3.36504572 -0.322182 3.00339358 -3.4375 2.625 C-6.8125 2.21484375 -6.8125 2.21484375 -9.4375 1.6875 C-9.7675 1.0275 -10.0975 0.3675 -10.4375 -0.3125 C-6.63977743 -1.57840752 -3.79877686 -0.8049182 0 0 Z " fill="#256ED4" transform="translate(334.4375,450.3125)"/>
<path d="M0 0 C0.66 0 1.32 0 2 0 C-0.04967449 5.76688077 -3.2612904 10.93248359 -6.27929688 16.23046875 C-8.81889776 20.7343809 -11.06270284 25.20470999 -13 30 C-13.66 30 -14.32 30 -15 30 C-14.77603922 23.72909823 -13.41854461 20.55370792 -9.375 15.76171875 C-7.79350746 13.93787213 -7.79350746 13.93787213 -7 11 C-6.34 11 -5.68 11 -5 11 C-4.67 9.35 -4.34 7.7 -4 6 C-3.34 6 -2.68 6 -2 6 C-2 4.68 -2 3.36 -2 2 C-1.34 2 -0.68 2 0 2 C0 1.34 0 0.68 0 0 Z " fill="#E4F6FE" transform="translate(216,249)"/>
<path d="M0 0 C-1.76386256 2.26471848 -2.63574944 2.947951 -5.52470398 3.36076355 C-7.03360954 3.3507708 -7.03360954 3.3507708 -8.57299805 3.34057617 C-10.28443245 3.34023628 -10.28443245 3.34023628 -12.03044128 3.33988953 C-13.87742363 3.31666374 -13.87742363 3.31666374 -15.76171875 3.29296875 C-17.65311333 3.28660149 -17.65311333 3.28660149 -19.5827179 3.28010559 C-22.93174943 3.26614627 -26.28016758 3.23920104 -29.62902832 3.20599365 C-33.04755353 3.17528105 -36.46614215 3.16159776 -39.88476562 3.14648438 C-46.59001349 3.11337223 -53.29497133 3.06314018 -60 3 C-60 2.67 -60 2.34 -60 2 C-59.34045319 1.98969254 -58.68090637 1.97938507 -58.00137329 1.96876526 C-51.1560851 1.86084621 -44.31093246 1.74623661 -37.46582031 1.62768555 C-34.90888293 1.58428978 -32.35191569 1.5426182 -29.79492188 1.50268555 C-26.12621041 1.44509531 -22.45764989 1.38136862 -18.7890625 1.31640625 C-17.64007477 1.29969376 -16.49108704 1.28298126 -15.30728149 1.26576233 C-13.71585831 1.2358445 -13.71585831 1.2358445 -12.09228516 1.20532227 C-10.68663803 1.18200584 -10.68663803 1.18200584 -9.25259399 1.15821838 C-5.96186983 0.9270835 -3.46439242 -0.09116822 0 0 Z " fill="#3876C7" transform="translate(603,524)"/>
<path d="M0 0 C31.55872258 -1.15534608 31.55872258 -1.15534608 44 6 C40.31886285 6.07512525 36.89754472 5.98463171 33.25 5.4375 C29.99617038 4.75685062 29.99617038 4.75685062 27 6 C27 5.01 27 4.02 27 3 C21.19230134 2.05196688 15.43790813 1.69552728 9.5625 1.4375 C8.64017578 1.39431641 7.71785156 1.35113281 6.76757812 1.30664062 C4.51183837 1.20145069 2.25600501 1.09930893 0 1 C0 0.67 0 0.34 0 0 Z " fill="#BBE1FD" transform="translate(356,241)"/>
<path d="M0 0 C5.2692227 2.80621439 9.60494045 5.98345216 14.0625 9.9375 C15.24056179 10.96781807 16.41894427 11.99776958 17.59765625 13.02734375 C18.1611377 13.52218262 18.72461914 14.01702148 19.30517578 14.52685547 C21.83592005 16.72658334 24.41542976 18.863894 27 21 C26.34 21.66 25.68 22.32 25 23 C25 22.34 25 21.68 25 21 C24.443125 20.7525 23.88625 20.505 23.3125 20.25 C19.9683551 18.44235411 17.2023396 16.07259073 14.37109375 13.546875 C10.46165248 10.08347736 6.61736703 7.45003149 2 5 C2 4.01 2 3.02 2 2 C1.34 2 0.68 2 0 2 C0 1.34 0 0.68 0 0 Z " fill="#3775D2" transform="translate(462,200)"/>
<path d="M0 0 C4.45165631 1.39909198 6.96606091 3.47407079 10 7 C11.3125 9.8125 11.3125 9.8125 12 12 C12.66 12 13.32 12 14 12 C14.12375 12.804375 14.2475 13.60875 14.375 14.4375 C14.58125 15.283125 14.7875 16.12875 15 17 C15.66 17.33 16.32 17.66 17 18 C18.1875 19.8125 18.1875 19.8125 19 22 C18.55078125 24.13671875 18.55078125 24.13671875 18 26 C17.6596875 25.32195312 17.319375 24.64390625 16.96875 23.9453125 C13.32333573 16.94534148 9.07570213 11.02097459 4 5 C2.66269275 3.33652025 1.32828766 1.67069071 0 0 Z " fill="#3677D2" transform="translate(440,270)"/>
<path d="M0 0 C-1.36623882 4.37196424 -3.77165813 7.4949523 -6.53515625 11.0625 C-8.20955544 13.27717199 -9.6394054 15.58116515 -11 18 C-11.33 17.01 -11.66 16.02 -12 15 C-10.69593116 12.98079663 -9.36176581 10.98075027 -8 9 C-8 8.01 -8 7.02 -8 6 C-8.99 6.495 -8.99 6.495 -10 7 C-7.88268985 1.88316713 -5.59548444 0 0 0 Z " fill="#2B76D9" transform="translate(284,278)"/>
<path d="M0 0 C5.45336254 0.66101364 9.68481104 3.13291213 13.9375 6.5625 C15 8 15 8 15 11 C17.475 11.495 17.475 11.495 20 12 C19.01 13.485 19.01 13.485 18 15 C15.37350147 12.87684676 12.74906226 10.75116327 10.125 8.625 C9.37863281 8.02171875 8.63226563 7.4184375 7.86328125 6.796875 C7.14785156 6.21679688 6.43242187 5.63671875 5.6953125 5.0390625 C5.03547363 4.50490723 4.37563477 3.97075195 3.69580078 3.42041016 C2 2 2 2 0 0 Z " fill="#DEF2FC" transform="translate(463,200)"/>
<path d="M0 0 C2.97 0 5.94 0 9 0 C9 0.66 9 1.32 9 2 C9.515625 1.835 10.03125 1.67 10.5625 1.5 C15.38265584 0.51125008 19.75782901 0.28501057 24 3 C22 5 22 5 19.78515625 5.08203125 C12.94198413 4.40458666 6.57127755 3.02095383 0 1 C0 0.67 0 0.34 0 0 Z " fill="#2F79D8" transform="translate(323,521)"/>
<path d="M0 0 C3.92872644 3.76443424 7.30257645 7.7588662 10.625 12.0625 C11.34042969 12.97999023 11.34042969 12.97999023 12.0703125 13.91601562 C14.41009636 16.92198795 16.72779887 19.94244077 19 23 C18.67 23.66 18.34 24.32 18 25 C14.48940293 22.86856607 12.92771945 20.36631468 11.015625 16.77734375 C9.91530245 14.74521372 9.91530245 14.74521372 7.75 12.1875 C6 10 6 10 6 8 C5.34 8 4.68 8 4 8 C0 2.58823529 0 2.58823529 0 0 Z " fill="#3E7AD2" transform="translate(572,470)"/>
<path d="M0 0 C5.32457188 7.98685781 6.60799088 19.57218071 7 29 C6.34 29 5.68 29 5 29 C5 26.36 5 23.72 5 21 C4.34 21 3.68 21 3 21 C2.49576443 18.25071558 1.99646574 15.50068857 1.5 12.75 C1.35691406 11.97269531 1.21382812 11.19539063 1.06640625 10.39453125 C0.93105469 9.64042969 0.79570313 8.88632812 0.65625 8.109375 C0.46772461 7.07248535 0.46772461 7.07248535 0.27539062 6.01464844 C0 4 0 4 0 0 Z " fill="#3878D7" transform="translate(532,291)"/>
<path d="M0 0 C3.59452983 3.49182898 6.96185351 7.00700747 10 11 C10 11.99 10 12.98 10 14 C8.68 13.67 7.36 13.34 6 13 C5.67 14.32 5.34 15.64 5 17 C4.01 16.34 3.02 15.68 2 15 C2 14.01 2 13.02 2 12 C3.32 12 4.64 12 6 12 C5.02510804 8.99408312 4.46253026 7.34009578 1.875 5.4375 C1.25625 4.963125 0.6375 4.48875 0 4 C0 2.68 0 1.36 0 0 Z " fill="#2076E0" transform="translate(498,232)"/>
<path d="M0 0 C-1.89923294 1.89923294 -3.18160487 2.69670146 -5.5546875 3.83984375 C-6.25207031 4.18080078 -6.94945312 4.52175781 -7.66796875 4.87304688 C-9.13145632 5.57888822 -10.59499741 6.28461861 -12.05859375 6.99023438 C-15.66102554 8.75164439 -18.81295093 10.54427862 -22 13 C-22.66 13 -23.32 13 -24 13 C-24 12.01 -24 11.02 -24 10 C-22.68 10 -21.36 10 -20 10 C-20 9.34 -20 8.68 -20 8 C-17.35261084 6.5393715 -16.10551666 6 -13 6 C-12.67 5.34 -12.34 4.68 -12 4 C-8.06538365 0.72115304 -5.08867662 -0.1375318 0 0 Z " fill="#D5F1FE" transform="translate(293,186)"/>
<path d="M0 0 C1.19667042 1.16247983 2.38839289 2.33048472 3.5546875 3.5234375 C4.95355582 4.95255162 6.38262971 6.35190461 7.8125 7.75 C10.56707698 11.84251437 10.91737966 15.17168599 10 20 C9.34 20.66 8.68 21.32 8 22 C8.04125 20.7625 8.0825 19.525 8.125 18.25 C8.10205075 13.81325706 8.10205075 13.81325706 6 10 C4.96875 9.38125 3.9375 8.7625 2.875 8.125 C1.92625 7.42375 0.9775 6.7225 0 6 C-0.375 2.75 -0.375 2.75 0 0 Z " fill="#3C79D3" transform="translate(596,501)"/>
<path d="M0 0 C0.33 0 0.66 0 1 0 C1 8.91 1 17.82 1 27 C-2.98787851 21.01818223 -2.07554389 14.29557394 -1.0625 7.5 C-0.96259766 6.77296875 -0.86269531 6.0459375 -0.75976562 5.296875 C-0.51565275 3.52996279 -0.25914703 1.76476986 0 0 Z " fill="#2E72D2" transform="translate(258,336)"/>
<path d="M0 0 C2.31 0 4.62 0 7 0 C4.22186754 2.77813246 0.87961908 3.6463183 -2.75 4.9375 C-6.76047652 6.37348564 -10.59953041 7.79284465 -14.390625 9.75390625 C-15.25171875 10.16511719 -16.1128125 10.57632813 -17 11 C-17.66 10.67 -18.32 10.34 -19 10 C-18.505 9.525625 -18.01 9.05125 -17.5 8.5625 C-15.88457803 7.24076302 -15.88457803 7.24076302 -16 6 C-11.545 5.505 -11.545 5.505 -7 5 C-7 4.34 -7 3.68 -7 3 C-3.535 2.505 -3.535 2.505 0 2 C0 1.34 0 0.68 0 0 Z " fill="#3577D0" transform="translate(331,244)"/>
<path d="M0 0 C7.625 1.875 7.625 1.875 11 3 C10.67 3.99 10.34 4.98 10 6 C10.680625 6.226875 11.36125 6.45375 12.0625 6.6875 C15.79614324 8.35572357 18.72163421 10.55729608 22 13 C21.67 13.66 21.34 14.32 21 15 C9.8671875 7.578125 9.8671875 7.578125 7.90136719 6.26367188 C6.66202947 5.43999288 5.41806694 4.62321774 4.16894531 3.81445312 C2.76327726 2.90047966 1.37901562 1.95371174 0 1 C0 0.67 0 0.34 0 0 Z " fill="#3D81D8" transform="translate(474,592)"/>
<path d="M0 0 C2.73083902 -0.13548815 5.45491807 -0.23429855 8.1875 -0.3125 C8.95642578 -0.35439453 9.72535156 -0.39628906 10.51757812 -0.43945312 C14.72585813 -0.52975956 16.43697077 -0.44547368 19.84375 2.25 C20.91109375 3.61125 20.91109375 3.61125 22 5 C22.59425781 5.73863281 23.18851563 6.47726562 23.80078125 7.23828125 C24.29964844 7.92277344 24.79851563 8.60726563 25.3125 9.3125 C26.08013672 10.35857422 26.08013672 10.35857422 26.86328125 11.42578125 C27.23839844 11.94527344 27.61351562 12.46476562 28 13 C26.68 13 25.36 13 24 13 C23.08854167 11.30729167 22.17708333 9.61458333 21.265625 7.921875 C19.64811339 5.46565366 18.36070786 3.80159284 16 2 C13.13403741 1.55111429 10.6184889 1.30574802 7.75 1.25 C7.00492188 1.22035156 6.25984375 1.19070313 5.4921875 1.16015625 C3.66203328 1.0897657 1.83101231 1.04258168 0 1 C0 0.67 0 0.34 0 0 Z " fill="#3170CF" transform="translate(544,456)"/>
<path d="M0 0 C0.33 0.99 0.66 1.98 1 3 C-0.8125 5.6875 -0.8125 5.6875 -3 8 C-3.66 8 -4.32 8 -5 8 C-5.4021875 9.3303125 -5.4021875 9.3303125 -5.8125 10.6875 C-6.93083742 13.80707281 -8.077202 16.3080828 -10 19 C-10.99 19.33 -11.98 19.66 -13 20 C-10.17619669 12.38509913 -5.29907615 6.07835206 0 0 Z " fill="#D4EFFD" transform="translate(285,278)"/>
<path d="M0 0 C0.66 0.33 1.32 0.66 2 1 C1.27683594 2.62808594 1.27683594 2.62808594 0.5390625 4.2890625 C-0.09909985 5.73431252 -0.73711277 7.17962853 -1.375 8.625 C-1.69210937 9.33785156 -2.00921875 10.05070312 -2.3359375 10.78515625 C-4.10596512 14.80459396 -5.68866374 18.80107481 -7 23 C-7.33 23 -7.66 23 -8 23 C-7.54442976 17.89761336 -6.68493747 13.63750388 -4.7578125 8.89453125 C-4.06031731 7.15079328 -3.49210386 5.35680661 -2.9375 3.5625 C-2 1 -2 1 0 0 Z " fill="#3575CF" transform="translate(270,297)"/>
<path d="M0 0 C10.395 1.98 10.395 1.98 21 4 C21 4.33 21 4.66 21 5 C18.77090129 5.02714735 16.54170633 5.04646254 14.3125 5.0625 C13.07113281 5.07410156 11.82976562 5.08570313 10.55078125 5.09765625 C4.72385817 4.93739984 4.72385817 4.93739984 2 4 C1.34 2.68 0.68 1.36 0 0 Z " fill="#D2EEFC" transform="translate(320,521)"/>
<path d="M0 0 C7.16707877 0.32577631 12.76927124 3.65443628 19 7 C14.40834617 8.41128754 11.22600255 7.11300128 7 5 C7 4.34 7 3.68 7 3 C6.401875 2.87625 5.80375 2.7525 5.1875 2.625 C3 2 3 2 0 0 Z " fill="#DEF4FE" transform="translate(401,248)"/>
<path d="M0 0 C5.00113594 1.48008696 9.32915597 3.6318336 13.875 6.125 C14.56335938 6.49753906 15.25171875 6.87007813 15.9609375 7.25390625 C17.64294798 8.16499526 19.32180436 9.08190315 21 10 C16.84228506 11.31538327 14.1120703 10.34433068 10 9 C10 8.01 10 7.02 10 6 C9.0925 5.7525 8.185 5.505 7.25 5.25 C3.89648511 3.96018658 2.32291764 2.68028958 0 0 Z " fill="#3477CD" transform="translate(305,438)"/>
<path d="M0 0 C0 0.66 0 1.32 0 2 C-0.9590625 2.1546875 -0.9590625 2.1546875 -1.9375 2.3125 C-2.618125 2.539375 -3.29875 2.76625 -4 3 C-4.33 3.99 -4.66 4.98 -5 6 C-5.66 6 -6.32 6 -7 6 C-7.33 6.66 -7.66 7.32 -8 8 C-10.64860427 8.59355614 -13.29197322 8.74209269 -16 9 C-13.50506504 6.18368359 -10.73437182 4.59044019 -7.4375 2.8125 C-6.46683594 2.28269531 -5.49617188 1.75289062 -4.49609375 1.20703125 C-2 0 -2 0 0 0 Z " fill="#377CD3" transform="translate(290,188)"/>
<path d="M0 0 C1.65 0 3.3 0 5 0 C5.33 0.99 5.66 1.98 6 3 C7.36125 3.12375 7.36125 3.12375 8.75 3.25 C12.40077839 4.09248732 13.63384583 5.17881618 16 8 C10.3856009 6.43551329 5.13189662 4.83604813 0 2 C0 1.34 0 0.68 0 0 Z " fill="#3C7CD1" transform="translate(288,508)"/>
<path d="M0 0 C4.50861087 3.81497843 5.4517441 6.18848749 6 12 C6.66 12.66 7.32 13.32 8 14 C7.360625 14.268125 6.72125 14.53625 6.0625 14.8125 C3.66868314 15.88667752 3.66868314 15.88667752 3 19 C2.34 19 1.68 19 1 19 C1.33 17.35 1.66 15.7 2 14 C2.66 14 3.32 14 4 14 C4 11.36 4 8.72 4 6 C3.34 6 2.68 6 2 6 C1.34 4.02 0.68 2.04 0 0 Z " fill="#2472DD" transform="translate(591,495)"/>
<path d="M0 0 C1.35554398 0.27349859 2.70842399 0.56047271 4.05859375 0.859375 C4.74373047 0.99472656 5.42886719 1.13007813 6.13476562 1.26953125 C11.22531541 2.33859666 11.22531541 2.33859666 13.49609375 4.609375 C11.09935108 4.49481372 8.70428157 4.36808781 6.30859375 4.234375 C5.63505859 4.2034375 4.96152344 4.1725 4.26757812 4.140625 C0.299304 3.90833578 -2.91120504 3.32550024 -6.50390625 1.609375 C-3.50390625 -0.390625 -3.50390625 -0.390625 0 0 Z " fill="#4281DB" transform="translate(330.50390625,449.390625)"/>
<path d="M0 0 C7.23214286 4.41964286 7.23214286 4.41964286 8.4375 8.8125 C8.623125 9.864375 8.80875 10.91625 9 12 C8.01 12.495 8.01 12.495 7 13 C6.03760548 11.75312408 5.08025991 10.50235031 4.125 9.25 C3.59132813 8.55390625 3.05765625 7.8578125 2.5078125 7.140625 C1.10761086 5.15277397 0.02144735 3.20156614 -1 1 C-0.67 0.67 -0.34 0.34 0 0 Z " fill="#E1F5FC" transform="translate(501,232)"/>
<path d="M0 0 C1 4 1 4 0 6 C-0.66 5.67 -1.32 5.34 -2 5 C-2.33 5.99 -2.66 6.98 -3 8 C-5.375 10.25 -5.375 10.25 -8 12 C-8.99 11.67 -9.98 11.34 -11 11 C-7.37 7.37 -3.74 3.74 0 0 Z " fill="#2B74D5" transform="translate(247,216)"/>
<path d="M0 0 C-0.99 0.495 -0.99 0.495 -2 1 C-2.33 2.32 -2.66 3.64 -3 5 C-6.63 5 -10.26 5 -14 5 C-5.07692308 -1.69230769 -5.07692308 -1.69230769 0 0 Z " fill="#2E79DE" transform="translate(305,183)"/>
<path d="M0 0 C0.99 0 1.98 0 3 0 C6 3.33333333 6 3.33333333 6 6 C6.66 6 7.32 6 8 6 C10.1875 8.8125 10.1875 8.8125 12 12 C11.67 12.99 11.34 13.98 11 15 C9.16374012 12.68977044 7.33088988 10.37697874 5.5 8.0625 C4.71302734 7.0734668 4.71302734 7.0734668 3.91015625 6.06445312 C0 1.11328125 0 1.11328125 0 0 Z " fill="#DDF5FE" transform="translate(566,461)"/>
<path d="M0 0 C3.85817949 1.5718509 6.110257 4.04458102 9 7 C11.63744522 9.36731582 14.31438342 11.68757083 17 14 C16.67 14.66 16.34 15.32 16 16 C4.04341164 6.57711951 4.04341164 6.57711951 0 1 C0 0.67 0 0.34 0 0 Z " fill="#3D7BCC" transform="translate(239,473)"/>
<path d="M0 0 C2.63007775 1.26111929 5.25376131 2.53324591 7.875 3.8125 C8.62136719 4.16892578 9.36773437 4.52535156 10.13671875 4.89257812 C10.85214844 5.24384766 11.56757813 5.59511719 12.3046875 5.95703125 C12.96452637 6.27647705 13.62436523 6.59592285 14.30419922 6.92504883 C16 8 16 8 18 11 C14.41994762 10.31445806 11.61059261 8.82820732 8.4375 7.0625 C7.48746094 6.53785156 6.53742188 6.01320312 5.55859375 5.47265625 C3.66510839 4.38281811 1.81780311 3.21186874 0 2 C0 1.34 0 0.68 0 0 Z " fill="#347BD0" transform="translate(441,188)"/>
<path d="M0 0 C5.52677733 -0.19392201 9.75614911 0.2520497 15 2 C15 1.34 15 0.68 15 0 C15.66 0 16.32 0 17 0 C17 0.66 17 1.32 17 2 C17.99 2.33 18.98 2.66 20 3 C12.73812918 4.53616498 7.05014265 3.07979208 0 1 C0 0.67 0 0.34 0 0 Z " fill="#397DDB" transform="translate(384,242)"/>
<path d="M0 0 C0.625 1.875 0.625 1.875 1 4 C-1 6 -1 6 -3.09375 6.23046875 C-3.8878125 6.21628906 -4.681875 6.20210937 -5.5 6.1875 C-6.2940625 6.18105469 -7.088125 6.17460938 -7.90625 6.16796875 C-10 6 -10 6 -12 5 C-11.67 4.34 -11.34 3.68 -11 3 C-9.1128125 3.0928125 -9.1128125 3.0928125 -7.1875 3.1875 C-3.83041021 3.23632922 -3.83041021 3.23632922 -1 1.5 C-0.67 1.005 -0.34 0.51 0 0 Z " fill="#E2F5FD" transform="translate(539,626)"/>
<path d="M0 0 C9.59453303 5.0022779 9.59453303 5.0022779 13 9 C12.01 9.495 12.01 9.495 11 10 C9.53426066 9.09522263 8.07764244 8.17565859 6.625 7.25 C5.81289063 6.73953125 5.00078125 6.2290625 4.1640625 5.703125 C1.91444321 3.9326665 1.04093152 2.63092581 0 0 Z " fill="#D8F3FD" transform="translate(502,612)"/>
<path d="M0 0 C0.5625 2.25 0.5625 2.25 1 5 C1.185625 5.928125 1.37125 6.85625 1.5625 7.8125 C1.7790625 8.8953125 1.7790625 8.8953125 2 10 C-1.28788824 6.88983545 -3.83735988 3.98381075 -6 0 C-2.25 -1.125 -2.25 -1.125 0 0 Z " fill="#E0F3FD" transform="translate(285,411)"/>
<path d="M0 0 C0.4125 0.556875 0.825 1.11375 1.25 1.6875 C2.98992498 4.05109959 2.98992498 4.05109959 5.0625 6.3125 C7.40138401 9.55675847 8.08973055 12.13135484 9 16 C8.34 16 7.68 16 7 16 C5.63597957 13.7136988 4.28365726 11.42178251 2.9375 9.125 C2.54755859 8.47402344 2.15761719 7.82304687 1.75585938 7.15234375 C0.77555467 5.46934275 -0.11898432 3.73703801 -1 2 C-0.67 1.34 -0.34 0.68 0 0 Z " fill="#D9F2FE" transform="translate(513,248)"/>
<path d="M0 0 C0.66 0 1.32 0 2 0 C6.59225513 11.52164009 6.59225513 11.52164009 6 17 C5.34 17 4.68 17 4 17 C2.68 11.39 1.36 5.78 0 0 Z " fill="#3476D4" transform="translate(462,305)"/>
<path d="M0 0 C0.66 0 1.32 0 2 0 C0.63172347 5.78886224 -1.04911777 11.38145918 -3 17 C-3.33 17 -3.66 17 -4 17 C-3.67 13.7 -3.34 10.4 -3 7 C-2.34 7 -1.68 7 -1 7 C-1.020625 6.030625 -1.04125 5.06125 -1.0625 4.0625 C-1 1 -1 1 0 0 Z " fill="#D1F0FD" transform="translate(199,282)"/>
<path d="M0 0 C3.23501466 3.72026686 5.57417568 8.29146387 7 13 C6.609375 15.28125 6.609375 15.28125 6 17 C3.70366176 13.55549263 3.45983515 11.06187717 3 7 C2.34 7 1.68 7 1 7 C0.67 4.69 0.34 2.38 0 0 Z " fill="#3F7CD5" transform="translate(524,272)"/>
<path d="M0 0 C0.33 0 0.66 0 1 0 C2.32 5.94 3.64 11.88 5 18 C4.34 18 3.68 18 3 18 C3 17.01 3 16.02 3 15 C2.34 15 1.68 15 1 15 C0.67 10.05 0.34 5.1 0 0 Z " fill="#C9E6FC" transform="translate(192,386)"/>
<path d="M0 0 C0.33 0 0.66 0 1 0 C1 3.96 1 7.92 1 12 C-0.32 12.33 -1.64 12.66 -3 13 C-2.68991116 11.39536551 -2.37683713 9.79130769 -2.0625 8.1875 C-1.88847656 7.29417969 -1.71445313 6.40085937 -1.53515625 5.48046875 C-1 3 -1 3 0 0 Z " fill="#4482DD" transform="translate(195,299)"/>
<path d="M0 0 C2.73704754 2.73704754 3.16182449 5.26044774 4 9 C3.625 11.4375 3.625 11.4375 3 13 C2.67 12.34 2.34 11.68 2 11 C1.34 11 0.68 11 0 11 C-1.37432457 7.18243176 -0.67975039 3.92744671 0 0 Z " fill="#D6EEFC" transform="translate(460,301)"/>
<path d="M0 0 C4.3573226 1.47130373 7.71934134 3.83080615 11.3125 6.625 C11.86228516 7.04523438 12.41207031 7.46546875 12.97851562 7.8984375 C14.32292168 8.92720039 15.66201413 9.9629009 17 11 C16.34 11.66 15.68 12.32 15 13 C14.50371094 12.55269531 14.00742187 12.10539062 13.49609375 11.64453125 C10.10404615 8.62580198 6.72743251 5.72429342 3 3.125 C2.01 2.42375 1.02 1.7225 0 1 C0 0.67 0 0.34 0 0 Z " fill="#407CD1" transform="translate(424,257)"/>
<path d="M0 0 C0 0.99 0 1.98 0 3 C-2.97 3.66 -5.94 4.32 -9 5 C-9.33 4.01 -9.66 3.02 -10 2 C-6.38026598 0.68373308 -3.90432869 0 0 0 Z " fill="#1D72F7" transform="translate(320,179)"/>
<path d="M0 0 C1.31052767 4.30422506 0.45785552 7.9370534 -0.4375 12.25 C-0.58509766 12.99507813 -0.73269531 13.74015625 -0.88476562 14.5078125 C-1.2488694 16.34007665 -1.62341409 18.17026053 -2 20 C-2.33 20 -2.66 20 -3 20 C-2.88613541 17.22829605 -2.75939222 14.45821954 -2.625 11.6875 C-2.5940625 10.90181641 -2.563125 10.11613281 -2.53125 9.30664062 C-2.49257812 8.54931641 -2.45390625 7.79199219 -2.4140625 7.01171875 C-2.3826416 6.31522217 -2.3512207 5.61872559 -2.31884766 4.90112305 C-2 3 -2 3 0 0 Z " fill="#D0EAFB" transform="translate(193,302)"/>
<path d="M0 0 C0 0.33 0 0.66 0 1 C-1.98 1 -3.96 1 -6 1 C-6 1.66 -6 2.32 -6 3 C-9.63 3 -13.26 3 -17 3 C-11.72346191 -0.51769206 -6.13607598 -0.10579441 0 0 Z " fill="#4285DD" transform="translate(347,172)"/>
<path d="M0 0 C0.70125 0.7425 1.4025 1.485 2.125 2.25 C4.97718006 4.97817223 7.6763063 6.91302954 11 9 C10.01 9.495 10.01 9.495 9 10 C5.52610742 8.52174784 2.24726182 7.12119697 0 4 C0 2.68 0 1.36 0 0 Z " fill="#D6F0FE" transform="translate(469,587)"/>
<path d="M0 0 C0.33 0 0.66 0 1 0 C1.33 3.63 1.66 7.26 2 11 C0.35 11.66 -1.3 12.32 -3 13 C-3 10 -3 10 -1 7 C-0.60612212 4.67612053 -0.26513915 2.34206251 0 0 Z " fill="#D5EBFB" transform="translate(606,514)"/>
<path d="M0 0 C2.45823172 3.68734758 3.01242616 6.69699971 4 11 C1 10 1 10 -1 7 C-0.625 3.3125 -0.625 3.3125 0 0 Z " fill="#D5EDFA" transform="translate(197,405)"/>
<path d="M0 0 C0.99 0 1.98 0 3 0 C2.39009109 3.55780196 1.4216319 6.6828589 0 10 C-0.33 10 -0.66 10 -1 10 C-1.02689216 8.52093108 -1.04634621 7.04172517 -1.0625 5.5625 C-1.07410156 4.73878906 -1.08570313 3.91507812 -1.09765625 3.06640625 C-1 1 -1 1 0 0 Z " fill="#1676F5" transform="translate(259,304)"/>
<path d="M0 0 C0.33 0.66 0.66 1.32 1 2 C0.01 3.485 0.01 3.485 -1 5 C-1.66 5 -2.32 5 -3 5 C-3 5.66 -3 6.32 -3 7 C-4.62626404 8.38232443 -6.2925002 9.71937515 -8 11 C-8.66 10.67 -9.32 10.34 -10 10 C-6.66666667 6.66666667 -3.33333333 3.33333333 0 0 Z " fill="#DBF2FC" transform="translate(296,267)"/>
<path d="M0 0 C1.75 0.125 1.75 0.125 4 1 C6.25 4.0625 6.25 4.0625 8 7 C5.69 6.34 3.38 5.68 1 5 C0.67 3.35 0.34 1.7 0 0 Z " fill="#2D77D6" transform="translate(490,225)"/>
<path d="M0 0 C0.99 0.495 0.99 0.495 2 1 C2 1.66 2 2.32 2 3 C2.99 3.33 3.98 3.66 5 4 C6.38576923 5.62332967 7.72641268 7.28724465 9 9 C8.01 9.33 7.02 9.66 6 10 C6 9.34 6 8.68 6 8 C5.34 8 4.68 8 4 8 C4 7.34 4 6.68 4 6 C3.01 5.67 2.02 5.34 1 5 C0.67 3.35 0.34 1.7 0 0 Z " fill="#D2E9F9" transform="translate(235,470)"/>
<path d="M0 0 C0.99 0.33 1.98 0.66 3 1 C-2.445 4.96 -2.445 4.96 -8 9 C-8.33 7.68 -8.66 6.36 -9 5 C-7.88625 4.54625 -6.7725 4.0925 -5.625 3.625 C-2.03800992 2.27534014 -2.03800992 2.27534014 0 0 Z " fill="#3B79D1" transform="translate(309,255)"/>
<path d="M0 0 C3.59634744 3.49359465 6.83451967 7.11098131 10 11 C9.67 11.66 9.34 12.32 9 13 C8.51789063 12.43410156 8.03578125 11.86820313 7.5390625 11.28515625 C6.90742188 10.55167969 6.27578125 9.81820312 5.625 9.0625 C4.99851562 8.33160156 4.37203125 7.60070312 3.7265625 6.84765625 C2.12252286 4.91619094 2.12252286 4.91619094 0 4 C0 2.68 0 1.36 0 0 Z " fill="#407AD3" transform="translate(498,232)"/>
<path d="M0 0 C0.598125 0.763125 1.19625 1.52625 1.8125 2.3125 C3.46959332 4.3483575 5.10297674 6.1978279 7 8 C5.1875 8.6875 5.1875 8.6875 3 9 C1.25 7.9375 1.25 7.9375 0 6 C-0.1875 2.8125 -0.1875 2.8125 0 0 Z " fill="#D7F3FE" transform="translate(468,400)"/>
<path d="M0 0 C1.5 1.375 1.5 1.375 3 3 C3 3.66 3 4.32 3 5 C3.99 5.33 4.98 5.66 6 6 C5.67 6.66 5.34 7.32 5 8 C3.35 7.67 1.7 7.34 0 7 C-1.125 2.25 -1.125 2.25 0 0 Z " fill="#1678F7" transform="translate(488,225)"/>
<path d="M0 0 C1.9375 1.125 1.9375 1.125 4 3 C4.75 6.1875 4.75 6.1875 5 9 C2.5 7.875 2.5 7.875 0 6 C-0.3125 2.8125 -0.3125 2.8125 0 0 Z " fill="#2F7AD8" transform="translate(596,501)"/>
<path d="M0 0 C2.4375 0.8125 2.4375 0.8125 5 2 C5.33 2.99 5.66 3.98 6 5 C4.68 5.33 3.36 5.66 2 6 C1.01 4.35 0.02 2.7 -1 1 C-0.67 0.67 -0.34 0.34 0 0 Z " fill="#FBFDF1" transform="translate(461,194)"/>
<path d="M0 0 C4.67105792 1.55701931 8.08705685 4.08447373 12 7 C11.67 7.66 11.34 8.32 11 9 C9.16384919 7.69144447 7.33114211 6.37805538 5.5 5.0625 C4.4790625 4.33160156 3.458125 3.60070312 2.40625 2.84765625 C1.6121875 2.23792969 0.818125 1.62820313 0 1 C0 0.67 0 0.34 0 0 Z " fill="#3477D1" transform="translate(484,598)"/>
<path d="M0 0 C2.97 0 5.94 0 9 0 C9 0.99 9 1.98 9 3 C2.84765625 2.4140625 2.84765625 2.4140625 1 2 C0.67 1.34 0.34 0.68 0 0 Z " fill="#367AD2" transform="translate(306,516)"/>
<path d="M0 0 C4.16550041 2.08275021 5.14638809 2.90254209 7 7 C6.67 8.32 6.34 9.64 6 11 C4.02 7.37 2.04 3.74 0 0 Z " fill="#D6F3FE" transform="translate(272,400)"/>
<path d="M0 0 C0.33 0 0.66 0 1 0 C2.3442623 5.37704918 2.3442623 5.37704918 0.6875 8.375 C-1 10 -1 10 -3 10 C-1.125 2.25 -1.125 2.25 0 0 Z " fill="#3479D6" transform="translate(199,288)"/>
<path d="M0 0 C3 1 3 1 4 3 C4.13415472 5.6723621 4.04318541 8.32250488 4 11 C1.54176828 7.31265242 0.98757384 4.30300029 0 0 Z " fill="#DCF8FD" transform="translate(530,283)"/>
<path d="M0 0 C0.99 0.33 1.98 0.66 3 1 C4.1875 3.5625 4.1875 3.5625 5 6 C5.66 6 6.32 6 7 6 C6.67 7.65 6.34 9.3 6 11 C4.79371992 8.66785852 3.8345262 6.50357861 3 4 C2.01 3.67 1.02 3.34 0 3 C0 2.01 0 1.02 0 0 Z " fill="#2474F2" transform="translate(505,245)"/>
<path d="M0 0 C7.57142857 4.14285714 7.57142857 4.14285714 10 7 C5.25 6.25 5.25 6.25 3 4 C1.68252676 3.30251417 0.35085807 2.63040043 -1 2 C-0.67 1.34 -0.34 0.68 0 0 Z " fill="#DEF5FE" transform="translate(492,605)"/>
<path d="M0 0 C2.375 0.5625 2.375 0.5625 5 2 C6.3125 5.625 6.3125 5.625 7 9 C4.04070881 6.24479785 1.96318174 3.53372712 0 0 Z " fill="#D7EFFD" transform="translate(587,488)"/>
<path d="M0 0 C4.76058041 5.52841596 4.76058041 5.52841596 5 9 C4.34 9.66 3.68 10.32 3 11 C0 4.5 0 4.5 0 0 Z " fill="#4381D6" transform="translate(519,262)"/>
<path d="M0 0 C2.88437779 1.29299694 4.87219421 2.65941363 7 5 C4.69 5 2.38 5 0 5 C0 3.35 0 1.7 0 0 Z " fill="#E2F5FA" transform="translate(425,259)"/>
<path d="M0 0 C3.375 -0.125 3.375 -0.125 7 0 C7.66 0.66 8.32 1.32 9 2 C7.02 2 5.04 2 3 2 C3 2.66 3 3.32 3 4 C1.68 3.34 0.36 2.68 -1 2 C-0.67 1.34 -0.34 0.68 0 0 Z " fill="#2579DC" transform="translate(431,186)"/>
<path d="M0 0 C2.31 0.66 4.62 1.32 7 2 C7 2.66 7 3.32 7 4 C7.66 4.33 8.32 4.66 9 5 C8.01 5.495 8.01 5.495 7 6 C5.83054208 5.19152271 4.66449539 4.37810888 3.5 3.5625 C2.8503125 3.11003906 2.200625 2.65757812 1.53125 2.19140625 C1.0259375 1.79824219 0.520625 1.40507813 0 1 C0 0.67 0 0.34 0 0 Z " fill="#3577CE" transform="translate(511,617)"/>
<path d="M0 0 C1.33333333 0.33333333 2.66666667 0.66666667 4 1 C4.70640625 1.17660156 5.4128125 1.35320312 6.140625 1.53515625 C8.09375 2.0234375 10.046875 2.51171875 12 3 C12 3.33 12 3.66 12 4 C3.42857143 4.28571429 3.42857143 4.28571429 0 2 C0 1.34 0 0.68 0 0 Z " fill="#C4E1FB" transform="translate(342,451)"/>
<path d="M0 0 C0.33 0.66 0.66 1.32 1 2 C1.99 2.33 2.98 2.66 4 3 C1.03 5.475 1.03 5.475 -2 8 C-2.33 6.68 -2.66 5.36 -3 4 C-2.01 4 -1.02 4 0 4 C-0.33 3.01 -0.66 2.02 -1 1 C-0.67 0.67 -0.34 0.34 0 0 Z " fill="#3378DC" transform="translate(287,270)"/>
<path d="M0 0 C1.98 0 3.96 0 6 0 C6.66 1.65 7.32 3.3 8 5 C5.36 3.68 2.72 2.36 0 1 C0 0.67 0 0.34 0 0 Z " fill="#3D7CCD" transform="translate(415,252)"/>
<path d="M0 0 C7.38461538 -0.36923077 7.38461538 -0.36923077 10.5 1.5 C10.995 1.995 11.49 2.49 12 3 C10.35 3.66 8.7 4.32 7 5 C7 4.01 7 3.02 7 2 C4.69 1.67 2.38 1.34 0 1 C0 0.67 0 0.34 0 0 Z " fill="#E4F5FC" transform="translate(376,242)"/>
<path d="M0 0 C3.465 1.98 3.465 1.98 7 4 C6.67 4.99 6.34 5.98 6 7 C4.68 6.34 3.36 5.68 2 5 C2 4.01 2 3.02 2 2 C1.34 2 0.68 2 0 2 C0 1.34 0 0.68 0 0 Z " fill="#3F7ADE" transform="translate(462,200)"/>
<path d="M0 0 C6.875 3.75 6.875 3.75 8 6 C4.62537285 5.45276317 2.91765 4.9451 0 3 C0 2.01 0 1.02 0 0 Z " fill="#DAF6FE" transform="translate(256,490)"/>
<path d="M0 0 C1.32 0.33 2.64 0.66 4 1 C4 2.98 4 4.96 4 7 C2 5.1875 2 5.1875 0 3 C0 2.01 0 1.02 0 0 Z " fill="#1578F7" transform="translate(244,471)"/>
<path d="M0 0 C2.64752004 2.57784846 4.94432065 4.91648098 7 8 C5.68 8 4.36 8 3 8 C0 2.25 0 2.25 0 0 Z " fill="#3F7BD7" transform="translate(565,461)"/>
<path d="M0 0 C2.09782787 2.09782787 2.6509396 3.3799207 3.625 6.125 C4.01558594 7.21167969 4.01558594 7.21167969 4.4140625 8.3203125 C4.70410156 9.15175781 4.70410156 9.15175781 5 10 C4.01 10 3.02 10 2 10 C0.68373308 6.38026598 0 3.90432869 0 0 Z " fill="#4082D6" transform="translate(266,388)"/>
<path d="M0 0 C-0.33 0.99 -0.66 1.98 -1 3 C-2.84765625 3.73046875 -2.84765625 3.73046875 -5.0625 4.1875 C-5.79597656 4.34605469 -6.52945312 4.50460937 -7.28515625 4.66796875 C-8.13400391 4.83232422 -8.13400391 4.83232422 -9 5 C-6.45523312 2.20075644 -3.92372883 0 0 0 Z " fill="#CBE7FB" transform="translate(320,252)"/>
<path d="M0 0 C0 0.66 0 1.32 0 2 C-3.3 2 -6.6 2 -10 2 C-3.75 -1.125 -3.75 -1.125 0 0 Z " fill="#C8E1FA" transform="translate(342,245)"/>
<path d="M0 0 C2.375 0.3125 2.375 0.3125 5 1 C5.66 1.99 6.32 2.98 7 4 C6.34 4.66 5.68 5.32 5 6 C3.35 4.02 1.7 2.04 0 0 Z " fill="#D3EDFC" transform="translate(494,227)"/>
<path d="M0 0 C0 0.66 0 1.32 0 2 C0.99 2 1.98 2 3 2 C3 2.66 3 3.32 3 4 C-0.63 3.34 -4.26 2.68 -8 2 C-8 1.67 -8 1.34 -8 1 C-2.25 0 -2.25 0 0 0 Z " fill="#E1F5FE" transform="translate(560,453)"/>
<path d="M0 0 C2.66735273 2.48952921 4.55746343 4.63408134 6 8 C4.125 7.75 4.125 7.75 2 7 C0.27898465 4.41847698 0 3.15081975 0 0 Z " fill="#D9F4FE" transform="translate(216,446)"/>
<path d="M0 0 C0.33 0 0.66 0 1 0 C0.67 4.62 0.34 9.24 0 14 C-0.33 14 -0.66 14 -1 14 C-2.51708428 4.58997722 -2.51708428 4.58997722 0 0 Z " fill="#E1F4FE" transform="translate(189,322)"/>
<path d="M0 0 C1.485 0.99 1.485 0.99 3 2 C3.6875 5.625 3.6875 5.625 4 9 C0 4.5 0 4.5 0 0 Z " fill="#1477F7" transform="translate(212,263)"/>
<path d="M0 0 C1.98 0 3.96 0 6 0 C6.33 0.99 6.66 1.98 7 3 C7.99 3.33 8.98 3.66 10 4 C8.02 4 6.04 4 4 4 C4 3.34 4 2.68 4 2 C2.68 1.34 1.36 0.68 0 0 Z " fill="#2672E5" transform="translate(409,248)"/>
</svg>
